<?xml version="1.0" standalone="no"?>
<!DOCTYPE svg PUBLIC "-//W3C//DTD SVG 20010904//EN"
 "http://www.w3.org/TR/2001/REC-SVG-20010904/DTD/svg10.dtd">
<svg version="1.0" xmlns="http://www.w3.org/2000/svg"
 width="376.000000pt" height="376.000000pt" viewBox="0 0 376.000000 376.000000"
 preserveAspectRatio="xMidYMid meet">
<metadata>
Created by potrace 1.14, written by Peter Selinger 2001-2017
</metadata>
<g transform="translate(0.000000,376.000000) scale(0.100000,-0.100000)"
fill="#000000" stroke="none">
<path d="M1640 2935 c-111 -16 -191 -39 -205 -59 -7 -9 -15 -13 -18 -9 -11 10
-108 -37 -173 -83 -34 -23 -99 -83 -145 -132 l-84 -89 -235 -7 c-324 -9 -514
-17 -519 -22 -2 -2 -2 -6 0 -9 7 -6 254 -15 515 -18 l221 -2 -18 -32 c-10 -17
-26 -65 -36 -106 l-18 -74 -180 -7 c-98 -4 -186 -11 -195 -16 -17 -11 -29 -9
215 -19 l160 -6 3 -82 3 -81 -73 -6 c-40 -3 -149 -10 -243 -16 -196 -11 -380
-27 -445 -37 l-45 -7 55 -7 c112 -15 540 -48 695 -54 88 -4 187 -11 220 -15
l60 -7 -80 -2 c-87 -1 -413 -25 -564 -40 -52 -6 -98 -8 -102 -5 -4 2 -10 0
-14 -6 -6 -9 26 -13 138 -14 17 -1 35 -4 38 -8 6 -9 358 -34 616 -44 100 -4
180 -10 178 -14 -2 -4 -100 -10 -217 -13 -117 -4 -256 -12 -308 -18 -52 -6
-115 -12 -140 -14 -63 -3 -67 -4 -52 -13 7 -5 51 -9 99 -10 48 -2 130 -9 182
-18 75 -12 222 -17 677 -21 604 -6 968 4 1172 33 57 8 107 12 110 10 4 -2 16
0 27 4 17 6 14 9 -15 14 -50 9 -448 36 -539 37 -42 0 -94 3 -116 7 -26 5 55
12 230 20 272 12 688 40 714 48 28 9 1 16 -71 20 -40 2 -86 7 -103 10 -52 9
-426 34 -514 34 -158 0 -73 11 200 26 434 23 628 40 674 58 27 11 17 14 -110
24 -77 7 -221 17 -320 23 -99 5 -207 12 -240 15 l-60 5 0 135 0 134 387 0
c214 0 388 3 388 8 0 4 33 8 73 9 78 1 145 11 151 22 3 3 -59 6 -137 6 -78 0
-309 1 -514 3 l-371 2 -12 38 c-20 63 -88 169 -152 237 -133 143 -358 250
-536 257 -39 2 -72 6 -72 11 0 10 -112 6 -210 -8z"/>
<path d="M1579 1666 c-2 -2 -71 -6 -154 -10 -344 -15 -553 -34 -515 -48 8 -4
125 -13 260 -21 282 -18 901 -22 1106 -8 76 6 199 13 273 16 74 3 141 10 150
15 12 7 8 9 -18 10 -19 0 -71 4 -115 10 -215 26 -967 54 -987 36z"/>
<path d="M1508 1515 c-3 -3 -68 -8 -144 -10 -145 -5 -219 -13 -210 -23 3 -3
18 -6 33 -8 52 -4 498 -33 553 -35 81 -3 526 20 588 31 29 5 56 9 60 9 19 -3
33 2 28 9 -5 8 -131 15 -283 16 -40 1 -73 4 -73 8 0 8 -544 11 -552 3z"/>
<path d="M553 1310 c-107 -22 -183 -96 -208 -204 -27 -119 7 -238 90 -308 62
-53 194 -72 294 -42 56 16 64 27 65 83 1 36 1 36 51 41 31 3 45 8 38 13 -9 5
-13 34 -13 82 0 64 -3 76 -21 89 -22 15 -64 12 -86 -6 -10 -8 -13 1 -13 46 0
62 5 59 -61 40 -14 -4 -17 -9 -11 -17 14 -17 14 -217 1 -234 -9 -10 -3 -13 32
-13 l44 0 -3 80 c-3 76 -2 81 20 89 13 5 26 7 31 4 4 -2 7 -40 7 -85 0 -65 -3
-79 -14 -75 -10 4 -22 -13 -40 -54 -28 -66 -48 -79 -120 -79 -58 0 -105 33
-136 95 -23 45 -25 62 -25 175 0 121 1 127 31 180 25 45 40 59 78 74 69 29
111 16 154 -49 19 -27 37 -51 42 -53 5 -2 8 18 8 43 0 54 -15 67 -96 84 -59
12 -79 12 -139 1z"/>
<path d="M1900 1292 c0 -4 9 -13 20 -20 19 -12 20 -23 20 -251 0 -236 0 -239
-22 -254 -22 -15 -16 -16 86 -16 106 -1 108 -1 86 17 -21 17 -23 26 -23 130 0
62 2 114 4 117 4 4 142 9 177 6 9 -1 12 -32 12 -120 0 -113 -1 -121 -22 -135
-21 -15 -15 -16 86 -16 106 0 108 0 86 18 -22 18 -23 22 -22 233 0 285 -1 267
22 274 11 4 18 10 15 15 -8 12 -205 12 -205 0 0 -6 6 -10 14 -10 22 0 26 -23
26 -136 l0 -104 -95 0 c-83 0 -95 2 -96 18 -1 9 -1 59 -1 110 0 85 2 94 23
111 l24 20 -107 0 c-60 0 -108 -3 -108 -7z"/>
<path d="M1130 1151 c-15 -4 -20 -10 -14 -14 14 -8 16 -214 3 -239 -9 -16 -5
-18 33 -18 l43 0 -3 140 c-3 152 -1 148 -62 131z"/>
<path d="M964 1064 c-35 -17 -54 -50 -54 -95 0 -87 107 -127 170 -62 l25 25
-30 -15 c-49 -24 -85 -9 -100 41 -6 21 -4 22 60 22 65 0 65 0 61 26 -7 34 -31
61 -62 67 -26 5 -33 -7 -9 -17 9 -3 15 -18 15 -36 0 -27 -3 -30 -34 -30 -31 0
-33 2 -31 31 2 17 9 35 16 40 25 15 4 18 -27 3z"/>
<path d="M1268 1066 c-12 -6 -27 -24 -33 -40 -8 -25 -6 -31 18 -52 16 -13 36
-24 46 -24 29 0 47 -28 33 -51 -16 -25 -15 -29 6 -22 31 11 52 36 52 60 0 31
-16 47 -63 62 -45 15 -68 48 -40 58 10 3 21 8 25 10 5 2 19 -8 33 -23 l25 -27
0 27 c0 18 -6 26 -17 27 -10 1 -28 3 -40 4 -12 1 -32 -3 -45 -9z"/>
<path d="M1464 1064 c-48 -23 -66 -80 -45 -137 12 -31 69 -58 107 -51 30 6 64
30 64 47 0 6 -8 3 -17 -5 -23 -20 -63 -14 -85 13 -33 39 -24 49 47 49 l65 0
-4 27 c-11 57 -75 85 -132 57z m79 -26 c9 -30 -5 -48 -39 -48 -33 0 -34 1 -29
32 4 18 11 36 17 40 14 8 45 -7 51 -24z"/>
<path d="M1663 1068 c-34 -9 -53 -42 -34 -61 8 -8 16 -9 29 -1 9 6 15 13 13
15 -2 2 1 14 7 26 15 27 38 20 45 -13 5 -31 -10 -50 -48 -59 -37 -8 -65 -32
-65 -55 0 -37 59 -59 93 -35 17 12 23 12 43 -1 18 -12 27 -13 45 -4 19 11 20
14 7 21 -11 6 -15 24 -15 62 0 29 -3 63 -7 74 -11 34 -57 46 -113 31z m61
-120 c-5 -39 -17 -53 -39 -44 -24 9 -15 48 15 63 14 7 26 13 26 13 1 0 0 -14
-2 -32z"/>
<path d="M2428 1073 c-23 -4 -26 -8 -19 -26 4 -12 6 -47 5 -79 -3 -71 19 -101
69 -93 17 4 37 11 44 17 9 7 13 7 13 -1 0 -6 16 -11 36 -11 23 0 33 4 28 11
-4 6 -6 52 -6 101 1 88 1 90 -21 84 -12 -3 -26 -6 -32 -6 -6 0 -10 -34 -10
-82 l0 -83 -30 0 -30 0 0 88 c1 54 -3 86 -10 86 -5 -1 -22 -4 -37 -6z"/>
<path d="M2691 1070 c-48 -11 -69 -51 -34 -64 18 -7 43 17 43 41 0 7 5 13 10
13 6 0 13 0 18 1 11 1 20 -44 11 -62 -5 -9 -23 -19 -40 -23 -64 -12 -89 -61
-48 -90 21 -14 66 -12 83 4 5 5 19 2 32 -6 18 -12 27 -13 45 -4 17 10 19 14 8
21 -9 5 -14 27 -15 57 -2 78 -10 99 -45 111 -18 6 -32 11 -33 10 -1 -1 -16 -5
-35 -9z m52 -122 c-6 -40 -17 -53 -38 -44 -24 9 -15 48 15 63 14 7 26 13 27
13 1 0 -1 -15 -4 -32z"/>
<path d="M2946 1065 c-14 -8 -26 -10 -26 -4 0 12 -22 12 -57 -2 -15 -5 -23
-13 -17 -17 14 -10 17 -118 4 -142 -10 -19 -8 -20 35 -20 29 0 44 4 40 10 -9
14 -9 135 -1 149 4 6 18 11 32 11 23 0 24 -2 24 -79 0 -54 -4 -81 -12 -84 -7
-3 12 -5 42 -5 30 0 49 2 43 5 -9 3 -13 30 -13 83 0 81 -7 97 -48 105 -11 2
-31 -3 -46 -10z"/>
<path d="M3123 1065 c-18 -8 -33 -18 -34 -22 0 -4 -2 -17 -4 -28 -2 -11 3 -27
11 -36 14 -16 14 -20 -1 -42 -15 -23 -15 -26 0 -41 9 -9 12 -16 7 -16 -5 0
-14 -11 -20 -25 -17 -37 14 -65 72 -65 78 0 125 29 126 77 0 27 -27 43 -99 57
-69 14 -76 31 -12 31 61 0 84 18 79 62 -4 29 -1 33 20 33 14 0 21 4 16 11 -3
6 -16 8 -28 5 -13 -3 -37 -1 -54 4 -18 5 -32 5 -32 0 0 -5 4 -10 10 -12 5 -1
12 -16 15 -33 8 -36 -14 -71 -39 -62 -19 8 -23 76 -4 95 19 19 6 22 -29 7z
m63 -195 c11 0 29 -6 39 -14 19 -14 19 -15 1 -35 -21 -24 -84 -29 -104 -9 -13
13 -16 51 -5 62 4 4 17 5 28 2 11 -3 29 -6 41 -6z"/>
<path d="M1232 915 c2 -22 10 -30 31 -36 15 -4 27 -6 27 -4 0 1 -14 18 -31 36
l-31 33 4 -29z"/>
</g>
</svg>
